inDegrees=no
num_controls=7
num_derivatives=13
num_iterations=151
num_multipliers=7
num_parameters=0
num_slacks=7
num_states=26
objective=5.925804
objective_accelerations=0.756564
objective_balance=0.023597
objective_effort=0.514876
objective_height=4.582848
objective_ligament=0.047919
solver_duration=1255.288842
status=Solve_Succeeded
success=true
DataType=double
version=3
OpenSimVersion=4.4-2022-07-23-0e9fedc
endheader
time	/jointset/ground_pelvis/pelvis_tilt/value	/jointset/ground_pelvis/pelvis_tx/value	/jointset/ground_pelvis/pelvis_ty/value	/jointset/hip_r/hip_flexion_r/value	/jointset/hip_r/hip_adduction_r/value	/jointset/hip_r/hip_rotation_r/value	/jointset/back/lumbar_extension/value	/jointset/patellofemoral_r/patellar_flexion_r/value	/jointset/knee_r/knee_flexion_r/value	/jointset/knee_r/knee_adduction_r/value	/jointset/knee_r/knee_rotation_r/value	/jointset/ankle_r/ankle_angle_r/value	/jointset/subtalar_r/subtalar_angle_r/value	/jointset/ground_pelvis/pelvis_tilt/speed	/jointset/ground_pelvis/pelvis_tx/speed	/jointset/ground_pelvis/pelvis_ty/speed	/jointset/hip_r/hip_flexion_r/speed	/jointset/hip_r/hip_adduction_r/speed	/jointset/hip_r/hip_rotation_r/speed	/jointset/back/lumbar_extension/speed	/jointset/patellofemoral_r/patellar_flexion_r/speed	/jointset/knee_r/knee_flexion_r/speed	/jointset/knee_r/knee_adduction_r/speed	/jointset/knee_r/knee_rotation_r/speed	/jointset/ankle_r/ankle_angle_r/speed	/jointset/subtalar_r/subtalar_angle_r/speed	/forceset/tau_hip_flexion_r	/forceset/tau_hip_adduction_r	/forceset/tau_hip_rotation_r	/forceset/tau_knee_flexion_r	/forceset/tau_ankle_angle_r	/forceset/tau_subtalar_angle_r	/forceset/tau_lumbar_extension	lambda_cid13_p0	lambda_cid14_p0	lambda_cid14_p1	lambda_cid14_p2	lambda_cid14_p3	lambda_cid14_p4	lambda_cid14_p5	/jointset/ground_pelvis/pelvis_tilt/accel	/jointset/ground_pelvis/pelvis_tx/accel	/jointset/ground_pelvis/pelvis_ty/accel	/jointset/hip_r/hip_flexion_r/accel	/jointset/hip_r/hip_adduction_r/accel	/jointset/hip_r/hip_rotation_r/accel	/jointset/back/lumbar_extension/accel	/jointset/patellofemoral_r/patellar_flexion_r/accel	/jointset/knee_r/knee_flexion_r/accel	/jointset/knee_r/knee_adduction_r/accel	/jointset/knee_r/knee_rotation_r/accel	/jointset/ankle_r/ankle_angle_r/accel	/jointset/subtalar_r/subtalar_angle_r/accel	gamma_cid13_p0	gamma_cid14_p0	gamma_cid14_p1	gamma_cid14_p2	gamma_cid14_p3	gamma_cid14_p4	gamma_cid14_p5
1	-0.2939569787257597	-0.02495503720262739	0.5779513354117903	1.625916344127645	-0.2425199738191228	-0.05158211672592387	-0.7853940803311955	1.647049554771133	1.647049554771165	-0.1745313020924629	0.174530788529185	0.4362516069297823	0.1669571875941008	0.06724852261300843	0.003661468534854795	0.01698725600560629	-0.1001225039921897	-0.0006723010588599621	-0.003176790471022485	-2.299968839275432e-05	-0.02130508376069368	-0.02130508376069412	0.003486735317113258	-0.0003660402309150313	0.01143643048147193	0.004529813364702267	-0.3773002424296075	0.0155663660982284	0.003841901834976853	-0.478910299402795	-0.01869675694676464	0.007724054139150612	0.3842273843480221	-0.03937957825680588	-58.57189443111002	-10.10595467718193	5.693976548312679	8.243955272109055	-788.6534092165026	72.51784380744806	1.277721752285118	0.1223429337188648	2.158644802261916	-6.282343559374822	0.214305536539399	-0.8591148835079564	-0.0160484480250951	-5.587041298374488	-5.587041298374422	0.61820482585272	-0.02344519460080376	-0.7434233298290661	0.05379684430701475	1.448174168120743e-09	8.393737830501107e-10	6.736500334812856e-09	1.011602122668217e-08	6.851290228379767e-10	-6.061423983629821e-09	1.370526023157712e-08
1.01	-0.2932211352186169	-0.0249122366012717	0.578229036914974	1.624601619665634	-0.2425158832628095	-0.05165364417778148	-0.7853945250797243	1.646557519031101	1.646557519031142	-0.1744624621438043	0.1745255967555505	0.4363288750238244	0.167005318435269	0.07993093484460206	0.004909491923295975	0.03855367528686356	-0.1628413900128776	0.00148565639438278	-0.01107399753781066	-7.832094377313662e-05	-0.07709860297034965	-0.07709860297034972	0.01034285820878307	-0.0006651642050532523	0.004024197686157723	0.005089286184685343	-0.3765731632346792	0.0154226410525884	0.003958810959319354	-0.4795179359644073	-0.01771747004560875	0.007689663151452216	0.3838675210348799	-0.03938094277371991	-58.24579544794803	-10.07396561660284	5.700496244366874	7.898801798266947	-788.5410631134323	72.64897576775475	1.265116277870219	0.1276571842818678	2.155732157182126	-6.269509687950294	0.21583371938927	-0.746815752860298	-0.002129602806920602	-5.57498947027869	-5.574989470278743	0.7285550301369037	-0.03206016120804668	-0.7390718523980997	0.05597405661284491	7.088658237090852e-09	8.783960610622672e-09	3.92593954639679e-08	4.791206270141599e-08	-4.372910834727422e-09	-1.457483496979263e-08	9.445150745966504e-08
1.02	-0.2923581445253035	-0.02485663073745669	0.5787224209441958	1.622659136630503	-0.242490354558031	-0.05180250212722448	-0.7853958941682342	1.64550765165137	1.645507651651422	-0.1743232131643408	0.1745176309097227	0.4363322310699114	0.1670588343157904	0.09267795984714977	0.006222521026717625	0.06012376121311335	-0.2256742186149453	0.003615328634524744	-0.01864288998844338	-0.0002078677396274465	-0.132871411700707	-0.1328714117007086	0.01756854147296866	-0.000920854674687877	-0.003345979029782091	0.00560682123541312	-0.3758460840397764	0.0152789160069429	0.004075720083642866	-0.4801255725260196	-0.01673818314444877	0.007655272163746229	0.3835076577217129	-0.03939081148034039	-57.92582750767944	-10.04052023890975	5.703893737348672	7.553619621193114	-788.5262947988356	72.80184219807767	1.290644306476043	0.1353440767148245	2.159378131260401	-6.305132075650652	0.2086484939191649	-0.7934519602770047	-0.03089355611825475	-5.58289920251482	-5.582899202515145	0.6921169003558735	-0.01475849369980688	-0.7350121139545064	0.04540929045565186	1.518753570049137e-08	2.216319341242697e-08	8.133171936180606e-08	1.024854753711737e-07	-1.628046960463328e-08	-2.319892965948259e-08	2.085730082697515e-07
1.03	-0.2913675721119407	-0.02478765981847787	0.5794313854708997	1.620088408295997	-0.242443646486433	-0.05202549982213494	-0.7853981132951221	1.643900196609221	1.643900196609215	-0.1741099752475346	0.1745073669416281	0.4362616808753186	0.1671171531580394	0.1054260761415399	0.007573544463382118	0.08165610461381936	-0.2884260278468525	0.005725571673649599	-0.02591457593322748	-0.0001668493761172657	-0.1886130286272053	-0.188613028627206	0.02512353377429171	-0.001124971259695967	-0.01079766839020403	0.006037208594170113	-0.3757506452327932	0.01540837403068849	0.00419670094025308	-0.4796252961325848	-0.01731375993828702	0.00770980250689703	0.3836289620656503	-0.03942108749422459	-58.10089557147936	-10.02968005768072	5.681821484715659	7.753808640436082	-788.3789520109543	72.80474802409502	1.26533430299302	0.1352580072165028	2.148200100280399	-6.253386577881967	0.2121244354411382	-0.6877050057664579	0.03196580259005344	-5.568812433927228	-5.568812433926899	0.7938565059165774	-0.0221491129602181	-0.7552873643580679	0.03893065630079504	2.331149881077385e-08	3.559788178539694e-08	1.235014864103451e-07	1.572300857061869e-07	-2.82579214246651e-08	-3.182415377471873e-08	3.230350728918994e-07
1.04	-0.2902498307332136	-0.02470512335911768	0.5803552809627723	1.616891525622992	-0.242375853539137	-0.05231994999533714	-0.7853978489864719	1.641735521498566	1.641735521498501	-0.1738198541855428	0.174495279633242	0.4361156057836463	0.1671791913134185	0.1181117529188283	0.008935629102988459	0.1031099542467187	-0.3509050863156156	0.007832303774057487	-0.03293338564550862	0.0002888197875559196	-0.2443154254020965	-0.2443154254020934	0.03294517051146321	-0.001285522727050648	-0.01845095844150734	0.006350683861522281	-0.3756552064257987	0.01553783205441065	0.004317681796920774	-0.4791250197391435	-0.01788933673213251	0.007764332849999173	0.3837502664095997	-0.03945946224476641	-58.28217258614899	-10.01706891901403	5.656201877264967	7.952873979632043	-788.3318905095452	72.83115484449802	1.278156403055688	0.1375563173032289	2.143679377699065	-6.250581923021874	0.2079463061756417	-0.7428767137765364	0.05203660391408108	-5.575055172193359	-5.575055172193131	0.7454457875255972	-0.006045470168830429	-0.7753322521307383	0.02202687217446991	3.079024854399321e-08	4.508438701077495e-08	1.627544879558554e-07	2.078372964318555e-07	-3.229639202155841e-08	-4.05943209458621e-08	4.264304732355547e-07
1.05	-0.2890058229992191	-0.02460875054754477	0.5814932383675384	1.613071504983105	-0.2422870642066964	-0.05268333347244204	-0.7853895750915422	1.639014166267398	1.6390141662674	-0.1734501812371539	0.1744818596636932	0.4358921267888207	0.1672437450713247	0.1306497115895641	0.01035688078906298	0.1244600715546147	-0.4130237116770299	0.009920897742723662	-0.03970102699157227	0.001575199579994766	-0.2999348018610089	-0.2999348018610182	0.04103371642748722	-0.001389176023068824	-0.02626424351595279	0.006539757803001409	-0.3762616208775725	0.0157044215139204	0.004504160480367112	-0.4782660352955764	-0.01865970293431147	0.007821959362033178	0.3847012057204966	-0.03949659266605026	-58.53407317563205	-10.01097614424905	5.626478748438118	7.942925598687395	-788.5788662095217	72.81130587495933	1.235613520691518	0.1470944752582242	2.127449672093706	-6.181193651558544	0.2086480653024378	-0.6373471004485846	0.1983247217974231	-5.552263762248767	-5.55226376225079	0.8471909890603918	-0.01105883413797147	-0.7872357510294407	0.01436349032384105	3.824883535917936e-08	5.444751151279074e-08	2.019163405793961e-07	2.58315213419732e-07	-3.608676945522869e-08	-4.936901758750257e-08	5.294800403205073e-07
1.06	-0.2876376360941896	-0.02449762824291147	0.5828440512983359	1.608632559927859	-0.2421775225099475	-0.05311312121409931	-0.7853621601876124	1.63573724029574	1.635737240295792	-0.172998296430533	0.1744676964461909	0.4355899331200636	0.167309592735683	0.1429475871246641	0.01188552771506658	0.1456810594528834	-0.4746899693927367	0.01198277663500816	-0.04621423855473036	0.004117021567977057	-0.3554295735002625	-0.3554295735002853	0.04938754216030106	-0.001434172311867594	-0.034193893227519	0.006609465152043872	-0.376868035329234	0.01587101097341428	0.004690639163899206	-0.4774070508520022	-0.01943006913651659	0.007879585874022771	0.3856521450314979	-0.03954147526361095	-58.79235390565137	-10.00279387867304	5.592759403379489	7.931892418537425	-788.9297934047152	72.816767909494	1.23013977592852	0.159035365289051	2.117853495773583	-6.160108393880368	0.2026032908992064	-0.6919907571955205	0.3031250430224477	-5.550134208261582	-5.55013420826157	0.7985017508835934	0.005685931275286068	-0.7986051795549008	-0.001846446313048983	4.563396927946471e-08	6.44062312434845e-08	2.37788816187448e-07	3.075968069750756e-07	-4.184737587394814e-08	-5.749463768185333e-08	6.275189369643876e-07
1.07	-0.2861475030450207	-0.02437065507209133	0.5844063784144778	1.603579195328371	-0.2420475116006703	-0.05360682548537356	-0.7853033609875194	1.631906044535268	1.631906044535292	-0.1724615969283533	0.174453398399603	0.4352077585266808	0.1673754587425622	0.1550527758004438	0.01352971231069914	0.1667577328527509	-0.5359072572324495	0.01401555826031257	-0.05248622295569216	0.007824454183344924	-0.4107837294032886	-0.4107837294032913	0.05799249276832812	-0.001419053809878512	-0.04227006393239628	0.006540070518686515	-0.3770060259184295	0.01600704443865227	0.004955385479571781	-0.4764180858288301	-0.01992063390546482	0.007930678456299972	0.3862322370025056	-0.03959460523053306	-58.93271146829603	-9.975100138491021	5.553986064198556	7.851656532691845	-788.8645030151843	72.8307229698613	1.196785526188884	0.1701912604440776	2.098566392092396	-6.091171593794414	0.2030824554644552	-0.5887168671824115	0.4317977302623539	-5.524189610094414	-5.524189610091431	0.8974940098986982	0.0004815568755186376	-0.8164768924027996	-0.01295061331907339	5.301519613087237e-08	7.439663157144836e-08	2.734863249329738e-07	3.568147663052843e-07	-4.771278170676594e-08	-6.558573242794399e-08	7.252913085848066e-07
1.08	-0.2845371026865342	-0.02422662380456627	0.5861786706906188	1.597915931327531	-0.2418972795037176	-0.05416203251778044	-0.7852020383893625	1.627522080550011	1.627522080550007	-0.1718376474612704	0.1744394628874627	0.4347439514509586	0.1674399378748129	0.1670010489876715	0.01529714705605319	0.1876740914525927	-0.5966698496632727	0.01602701417035287	-0.05851479078208897	0.01262170117745106	-0.4659832184571646	-0.4659832184571466	0.06683753514181658	-0.001361665419294857	-0.05052038969521989	0.006332090226447639	-0.3771440165076281	0.01614307790388749	0.005220131795251756	-0.4754291208056559	-0.02041119867441213	0.007981771038572526	0.3868123289735115	-0.03965503625700473	-59.07962874114568	-9.94507337634635	5.510863587945484	7.769780045337253	-788.9073069615289	72.87154748554853	1.198756678218151	0.1836853952333425	2.085790535768462	-6.069169312102469	0.1983381478463108	-0.6433074422825967	0.5210879187700331	-5.519200838431546	-5.519200838431442	0.8465201039758906	0.01413990899438594	-0.8334361911441963	-0.02956357808950425	5.948913947001853e-08	8.312389769981164e-08	3.042820897615567e-07	4.009281189178962e-07	-5.27161994667129e-08	-7.221330530303613e-08	8.088514645609619e-07
